HIERARCHY
ROOT Hips
{
    OFFSET 0.000000 0.000000 0.000000
    CHANNELS 6 Xposition Yposition Zposition Zrotation Xrotation Yrotation
    JOINT Spine
    {
        OFFSET 0.000005 7.889263 -0.000018
        CHANNELS 3 Zrotation Xrotation Yrotation
        JOINT Spine1
        {
            OFFSET -0.000003 20.943708 0.000015
            CHANNELS 3 Zrotation Xrotation Yrotation
            JOINT Neck
            {
                OFFSET -0.000000 22.222878 0.000006
                CHANNELS 3 Zrotation Xrotation Yrotation
                JOINT Head
                {
                    OFFSET 0.000000 14.209292 1.902201
                    CHANNELS 3 Zrotation Xrotation Yrotation
                    End Site
                    {
                        OFFSET 0.000000 19.022141 0.000000
                    }
                }
            }
            JOINT LeftShoulder
            {
                OFFSET 3.797838 16.121197 -0.677315
                CHANNELS 3 Zrotation Xrotation Yrotation
                JOINT LeftArm
                {
                    OFFSET 11.576588 0.000001 -0.000001
                    CHANNELS 3 Zrotation Xrotation Yrotation
                    JOINT LeftForeArm
                    {
                        OFFSET 29.906410 0.000015 -0.000016
                        CHANNELS 3 Zrotation Xrotation Yrotation
                        JOINT LeftHand
                        {
                            OFFSET 24.318321 -0.000008 -0.000001
                            CHANNELS 3 Zrotation Xrotation Yrotation
                            JOINT LeftHandThumb1
                            {
                                OFFSET 1.987815 -2.258879 3.162430
                                CHANNELS 3 Zrotation Xrotation Yrotation
                                JOINT LeftHandThumb2
                                {
                                    OFFSET 3.002314 -0.000008 0.000000
                                    CHANNELS 3 Zrotation Xrotation Yrotation
                                    JOINT LeftHandThumb3
                                    {
                                        OFFSET 2.566099 0.000003 0.000002
                                        CHANNELS 3 Zrotation Xrotation Yrotation
                                        End Site
                                        {
                                            OFFSET 2.440626 0.000000 0.000000
                                        }
                                    }
                                }
                            }
                            JOINT LeftHandIndex1
                            {
                                OFFSET 8.131962 -0.000002 3.162430
                                CHANNELS 3 Zrotation Xrotation Yrotation
                                JOINT LeftHandIndex2
                                {
                                    OFFSET 4.517782 0.000004 0.000004
                                    CHANNELS 3 Zrotation Xrotation Yrotation
                                    JOINT LeftHandIndex3
                                    {
                                        OFFSET 2.258868 -0.000002 -0.000006
                                        CHANNELS 3 Zrotation Xrotation Yrotation
                                        End Site
                                        {
                                            OFFSET 2.148437 0.000000 0.000000
                                        }
                                    }
                                }
                            }
                            JOINT LeftHandMiddle1
                            {
                                OFFSET 8.131986 -0.000003 1.048133
                                CHANNELS 3 Zrotation Xrotation Yrotation
                                JOINT LeftHandMiddle2
                                {
                                    OFFSET 4.969554 0.000002 0.000007
                                    CHANNELS 3 Zrotation Xrotation Yrotation
                                    JOINT LeftHandMiddle3
                                    {
                                        OFFSET 2.710641 -0.000003 -0.000003
                                        CHANNELS 3 Zrotation Xrotation Yrotation
                                        End Site
                                        {
                                            OFFSET 2.578118 0.000000 0.000000
                                        }
                                    }
                                }
                            }
                            JOINT LeftHandRing1
                            {
                                OFFSET 7.680179 -0.000003 -1.048122
                                CHANNELS 3 Zrotation Xrotation Yrotation
                                JOINT LeftHandRing2
                                {
                                    OFFSET 4.517781 0.000004 0.000004
                                    CHANNELS 3 Zrotation Xrotation Yrotation
                                    JOINT LeftHandRing3
                                    {
                                        OFFSET 2.258869 -0.000001 -0.000006
                                        CHANNELS 3 Zrotation Xrotation Yrotation
                                        End Site
                                        {
                                            OFFSET 2.148437 0.000000 0.000000
                                        }
                                    }
                                }
                            }
                            JOINT LeftHandPinky1
                            {
                                OFFSET 7.228428 -0.000001 -3.162421
                                CHANNELS 3 Zrotation Xrotation Yrotation
                                JOINT LeftHandPinky2
                                {
                                    OFFSET 3.614189 0.000000 -0.000007
                                    CHANNELS 3 Zrotation Xrotation Yrotation
                                    JOINT LeftHandPinky3
                                    {
                                        OFFSET 1.807095 -0.000001 -0.000004
                                        CHANNELS 3 Zrotation Xrotation Yrotation
                                        End Site
                                        {
                                            OFFSET 1.718745 0.000000 0.000000
                                        }
                                    }
                                }
                            }
                        }
                    }
                }
            }
            JOINT RightShoulder
            {
                OFFSET -3.797830 16.121197 -0.677299
                CHANNELS 3 Zrotation Xrotation Yrotation
                JOINT RightArm
                {
                    OFFSET -11.576583 -0.000001 -0.000013
                    CHANNELS 3 Zrotation Xrotation Yrotation
                    JOINT RightForeArm
                    {
                        OFFSET -29.906422 0.000009 0.000013
                        CHANNELS 3 Zrotation Xrotation Yrotation
                        JOINT RightHand
                        {
                            OFFSET -24.318344 0.000016 0.000009
                            CHANNELS 3 Zrotation Xrotation Yrotation
                            JOINT RightHandThumb1
                            {
                                OFFSET -1.987817 -2.258877 3.162438
                                CHANNELS 3 Zrotation Xrotation Yrotation
                                JOINT RightHandThumb2
                                {
                                    OFFSET -3.002301 -0.000006 0.000005
                                    CHANNELS 3 Zrotation Xrotation Yrotation
                                    JOINT RightHandThumb3
                                    {
                                        OFFSET -2.566068 0.000003 -0.000004
                                        CHANNELS 3 Zrotation Xrotation Yrotation
                                        End Site
                                        {
                                            OFFSET -2.440626 0.000000 0.000000
                                        }
                                    }
                                }
                            }
                            JOINT RightHandIndex1
                            {
                                OFFSET -8.131976 -0.000003 3.162441
                                CHANNELS 3 Zrotation Xrotation Yrotation
                                JOINT RightHandIndex2
                                {
                                    OFFSET -4.517741 0.000003 0.000000
                                    CHANNELS 3 Zrotation Xrotation Yrotation
                                    JOINT RightHandIndex3
                                    {
                                        OFFSET -2.258893 -0.000001 0.000007
                                        CHANNELS 3 Zrotation Xrotation Yrotation
                                        End Site
                                        {
                                            OFFSET -2.148437 0.000000 0.000000
                                        }
                                    }
                                }
                            }
                            JOINT RightHandMiddle1
                            {
                                OFFSET -8.131956 -0.000006 1.048121
                                CHANNELS 3 Zrotation Xrotation Yrotation
                                JOINT RightHandMiddle2
                                {
                                    OFFSET -4.969538 0.000001 0.000005
                                    CHANNELS 3 Zrotation Xrotation Yrotation
                                    JOINT RightHandMiddle3
                                    {
                                        OFFSET -2.710644 0.000002 0.000000
                                        CHANNELS 3 Zrotation Xrotation Yrotation
                                        End Site
                                        {
                                            OFFSET -2.578118 0.000000 0.000000
                                        }
                                    }
                                }
                            }
                            JOINT RightHandRing1
                            {
                                OFFSET -7.680204 -0.000001 -1.048112
                                CHANNELS 3 Zrotation Xrotation Yrotation
                                JOINT RightHandRing2
                                {
                                    OFFSET -4.517741 0.000004 0.000000
                                    CHANNELS 3 Zrotation Xrotation Yrotation
                                    JOINT RightHandRing3
                                    {
                                        OFFSET -2.258893 -0.000002 0.000006
                                        CHANNELS 3 Zrotation Xrotation Yrotation
                                        End Site
                                        {
                                            OFFSET -2.148437 0.000000 0.000000
                                        }
                                    }
                                }
                            }
                            JOINT RightHandPinky1
                            {
                                OFFSET -7.228434 -0.000004 -3.162422
                                CHANNELS 3 Zrotation Xrotation Yrotation
                                JOINT RightHandPinky2
                                {
                                    OFFSET -3.614192 0.000003 0.000000
                                    CHANNELS 3 Zrotation Xrotation Yrotation
                                    JOINT RightHandPinky3
                                    {
                                        OFFSET -1.807096 0.000001 0.000001
                                        CHANNELS 3 Zrotation Xrotation Yrotation
                                        End Site
                                        {
                                            OFFSET -1.718745 0.000000 0.000000
                                        }
                                    }
                                }
                            }
                        }
                    }
                }
            }
        }
    }
    JOINT LeftUpLeg
    {
        OFFSET 9.511073 -0.000001 0.000009
        CHANNELS 3 Zrotation Xrotation Yrotation
        JOINT LeftLeg
        {
            OFFSET 0.000004 -43.875637 0.000011
            CHANNELS 3 Zrotation Xrotation Yrotation
            JOINT LeftFoot
            {
                OFFSET 0.000007 -35.354156 -0.000013
                CHANNELS 3 Zrotation Xrotation Yrotation
                JOINT LeftToeBase
                {
                    OFFSET 0.000004 -6.182193 14.266595
                    CHANNELS 3 Zrotation Xrotation Yrotation
                    End Site
                    {
                        OFFSET 0.000000 0.000000 3.804428
                    }
                }
            }
        }
    }
    JOINT RightUpLeg
    {
        OFFSET -9.511072 0.000001 -0.000009
        CHANNELS 3 Zrotation Xrotation Yrotation
        JOINT RightLeg
        {
            OFFSET -0.000004 -43.875633 0.000007
            CHANNELS 3 Zrotation Xrotation Yrotation
            JOINT RightFoot
            {
                OFFSET -0.000006 -35.354145 0.000010
                CHANNELS 3 Zrotation Xrotation Yrotation
                JOINT RightToeBase
                {
                    OFFSET -0.000004 -6.182193 14.266592
                    CHANNELS 3 Zrotation Xrotation Yrotation
                    End Site
                    {
                        OFFSET 0.000000 0.000000 3.804428
                    }
                }
            }
        }
    }
}
MOTION
Frames:    4
Frame Time:    0.002778
8.164553    94.674858    595.934082    2.896222    11.557924    -154.168411    0.112245    6.218005    -0.883574    0.561225    6.217721    -0.932204    7.426353    11.270164    -20.916334    7.426354    11.270163    -20.916328    3.582162    0.178830    0.527883    -54.955338    8.615404    -13.191807    -49.667858    27.391352    -96.086754    9.283507    1.739026    13.807413    47.448219    38.866428    -34.355034    -35.000000    0.000003    0.000001    -0.000000    0.000000    -0.000000    -0.000003    9.999994    -0.000003    -0.000000    0.000000    -0.000000    -0.000000    0.000000    -0.000000    -0.000000    0.000000    -0.000000    -0.000000    0.000000    -0.000000    -0.000000    0.000000    -0.000000    -0.000000    0.000000    -0.000000    -0.000000    0.000000    -0.000000    -0.000000    0.000000    -0.000000    -0.000001    -10.000010    0.000007    -0.000000    0.000000    -0.000000    -0.000000    0.000000    -0.000000    -0.275856    -0.547484    0.851334    54.466278    -15.391780    32.326992    19.712612    11.314667    62.524570    -67.121475    10.023051    -4.341700    -47.448208    38.866428    34.355030    35.000008    -0.000001    -0.000003    -0.000000    0.000000    -0.000000    0.000002    10.000001    -0.000001    -0.000000    0.000000    -0.000000    -0.000000    0.000000    -0.000000    -0.000000    0.000000    -0.000000    -0.000000    0.000000    -0.000000    -0.000000    0.000000    -0.000000    -0.000000    0.000000    -0.000000    -0.000000    0.000000    -0.000000    -0.000000    0.000000    -0.000000    0.000012    -10.000005    0.000004    -0.000000    0.000000    -0.000000    -0.000000    0.000000    -0.000000    22.056095    1.037331    -5.358410    -0.000000    16.226517    0.000002    -4.390586    -7.555394    -6.924475    0.000002    -0.854271    0.000001    -0.975564    10.660951    2.249295    -0.000000    13.828584    0.000001    11.741190    -9.550409    -30.550053    0.000000    -3.278297    -0.000000    
7.013900    93.075577    601.140808    1.456122    8.732449    -158.587936    0.250082    8.047430    0.734473    1.250404    8.045613    0.594455    5.226869    7.992363    -20.106401    5.226868    7.992361    -20.106400    1.449355    -4.102915    -2.451274    -58.364136    6.037197    -12.812737    -48.510212    25.886274    -96.849159    9.474732    1.883233    14.273660    47.448231    38.866432    -34.355045    -35.000008    -0.000000    -0.000005    -0.000000    0.000000    -0.000000    0.000008    10.000009    -0.000011    -0.000000    0.000000    -0.000000    -0.000000    0.000000    -0.000000    -0.000000    0.000000    -0.000000    -0.000000    0.000000    -0.000000    -0.000000    0.000000    -0.000000    -0.000000    0.000000    -0.000000    -0.000000    0.000000    -0.000000    -0.000000    0.000000    -0.000000    0.000006    -9.999999    -0.000010    -0.000000    0.000000    -0.000000    -0.000000    0.000000    -0.000000    -3.928949    -2.686104    3.737247    52.299335    -18.505356    34.878036    19.968983    8.759514    60.886978    -66.111099    9.429453    -4.301160    -47.448215    38.866440    34.355030    34.999992    -0.000004    0.000003    -0.000000    0.000000    -0.000000    -0.000030    10.000010    -0.000005    -0.000000    0.000000    -0.000000    -0.000000    0.000000    -0.000000    -0.000000    0.000000    -0.000000    -0.000000    0.000000    -0.000000    -0.000000    0.000000    -0.000000    -0.000000    0.000000    -0.000000    -0.000000    0.000000    -0.000000    -0.000000    0.000000    -0.000000    -0.000004    -9.999993    0.000007    -0.000000    0.000000    -0.000000    -0.000000    0.000000    -0.000000    17.294708    -3.437358    -5.082947    0.000001    20.419090    -0.000003    -10.285150    -10.614494    -3.100218    0.000000    -1.719939    -0.000003    -6.296451    3.256140    5.105060    0.000000    18.011599    -0.000001    12.154534    -11.593834    -28.004164    -0.000000    -3.877898    -0.000001    
7.013900    93.075577    601.140808    1.229437    7.079090    -159.311996    0.099940    7.457553    1.108699    0.507036    7.459052    1.052848    5.049619    7.501854    -20.236179    5.049620    7.501854    -20.236181    1.525193    -4.149466    -2.200701    -58.259834    6.074390    -13.195406    -48.427856    25.987078    -96.795944    9.374681    1.861275    14.293792    47.448231    38.866440    -34.355045    -35.000008    0.000000    -0.000004    -0.000000    0.000000    -0.000000    0.000006    10.000005    -0.000007    -0.000000    0.000000    -0.000000    -0.000000    0.000000    -0.000000    -0.000000    0.000000    -0.000000    -0.000000    0.000000    -0.000000    -0.000000    0.000000    -0.000000    -0.000000    0.000000    -0.000000    -0.000000    0.000000    -0.000000    -0.000000    0.000000    -0.000000    0.000004    -10.000000    -0.000007    -0.000000    0.000000    -0.000000    -0.000000    0.000000    -0.000000    -4.307036    -2.268045    3.273697    52.902630    -18.776403    35.107208    20.198221    9.134179    61.639076    -66.515846    9.707573    -4.342607    -47.448215    38.866444    34.355030    35.000000    -0.000004    -0.000001    -0.000000    0.000000    -0.000000    -0.000015    10.000007    -0.000003    -0.000000    0.000000    -0.000000    -0.000000    0.000000    -0.000000    -0.000000    0.000000    -0.000000    -0.000000    0.000000    -0.000000    -0.000000    0.000000    -0.000000    -0.000000    0.000000    -0.000000    -0.000000    0.000000    -0.000000    -0.000000    0.000000    -0.000000    -0.000007    -9.999993    0.000002    -0.000000    0.000000    -0.000000    -0.000000    0.000000    -0.000000    16.211445    -5.512684    -4.956315    0.000000    21.980490    -0.000002    -10.650759    -11.478046    -2.110534    -0.000000    -1.710456    -0.000003    -7.558094    -0.513285    3.795552    0.000002    22.066422    -0.000001    13.026480    -12.890466    -25.481804    -0.000000    -3.999035    -0.000001    
6.834127    92.498871    602.139893    0.982499    5.428709    -160.040359    -0.046124    6.866721    1.480883    -0.230622    6.866668    1.502946    4.871442    7.011744    -20.367342    4.871444    7.011746    -20.367344    1.601239    -4.195687    -1.950052    -58.155285    6.110890    -13.578170    -48.345524    26.087931    -96.742828    9.274636    1.839282    14.313881    47.448212    38.866432    -34.355038    -35.000008    0.000001    -0.000002    -0.000000    0.000000    -0.000000    0.000004    10.000003    -0.000004    -0.000000    0.000000    -0.000000    -0.000000    0.000000    -0.000000    -0.000000    0.000000    -0.000000    -0.000000    0.000000    -0.000000    -0.000000    0.000000    -0.000000    -0.000000    0.000000    -0.000000    -0.000000    0.000000    -0.000000    -0.000000    0.000000    -0.000000    0.000001    -10.000001    -0.000003    -0.000000    0.000000    -0.000000    -0.000000    0.000000    -0.000000    -4.681627    -1.846953    2.813039    53.508049    -19.045155    35.339767    20.422705    9.511787    62.390465    -66.920723    9.985978    -4.382094    -47.448219    38.866447    34.355038    35.000008    -0.000004    -0.000006    -0.000000    0.000000    -0.000000    -0.000000    10.000002    -0.000000    -0.000000    0.000000    -0.000000    -0.000000    0.000000    -0.000000    -0.000000    0.000000    -0.000000    -0.000000    0.000000    -0.000000    -0.000000    0.000000    -0.000000    -0.000000    0.000000    -0.000000    -0.000000    0.000000    -0.000000    -0.000000    0.000000    -0.000000    -0.000010    -9.999993    -0.000003    -0.000000    0.000000    -0.000000    -0.000000    0.000000    -0.000000    15.128286    -7.590025    -4.868750    0.000000    23.541895    -0.000001    -11.002214    -12.347663    -1.123347    -0.000000    -1.700972    -0.000003    -8.909160    -4.251900    2.399632    0.000004    26.121248    -0.000003    13.961105    -14.148075    -22.925844    0.000000    -4.120172    -0.000000    
